<svg width="48" height="48" viewBox="0 0 192 192" xmlns="http://www.w3.org/2000/svg"><path d="M149.588 105.194c0-37.301-48.86-90.89-50.961-92.991L94.949 8l-3.678 4.203c-2.102 2.101-48.86 56.215-48.86 92.991 0 34.149 37.827 50.961 48.334 55.164v13.66c0 4.728-5.254 9.982-5.254 9.982h19.964s-5.254-5.254-5.254-9.982v-13.66c10.509-4.203 49.387-21.54 49.387-55.164zM99.152 57.385c0-2.627-2.102-4.203-4.203-4.203-2.627 0-4.203 2.101-4.203 4.203v25.743L79.188 71.57c-1.576-1.576-4.728-1.576-6.304 0-1.576 1.576-1.576 4.728 0 6.304l17.863 17.863v23.116l-19.439-18.388c-1.576-1.576-4.728-1.576-6.304 0-1.576 1.576-1.576 4.728 0 6.304l25.743 25.218v17.863c-12.084-5.254-38.352-19.964-38.352-44.131 0-27.319 32.048-68.824 42.555-81.958 11.558 13.134 44.657 54.113 44.657 81.958 0 24.693-27.845 38.878-39.928 44.657v-17.863l25.743-25.218c1.576-1.576 1.576-4.728 0-6.304s-4.728-1.576-6.304 0l-19.439 18.388V96.263L117.54 78.4c1.576-1.576 1.576-4.728 0-6.304s-4.728-1.576-6.304 0L99.678 83.654l-.526-26.269z" fill="#112e58"/></svg>