<svg width="48" height="48" viewBox="0 0 192 192" xmlns="http://www.w3.org/2000/svg"><path d="M135.978 113.139a3.564 3.564 0 10-3.515-3.614v.009a3.566 3.566 0 003.515 3.605zm47.712 33.292h-.15c-4.993-.08-5.922-1.598-5.922-9.437v-5.462c0-6.85-3.235-12.153-10.475-12.153-5.143 0-8.788 3.335-10.984 5.991a.18.18 0 01-.13.06c-.08 0-.09-.05-.09-.14v-5.292a.261.261 0 00-.23-.17h-.06l-9.986 1.738a.31.31 0 00-.24.3v1.438a.3.3 0 00.3.3h.06c3.914.32 4.753 2.137 4.753 9.307v3.994c0 7.2-.829 9.067-4.813 9.377a.3.3 0 00-.3.3v1.158a.31.31 0 00.3.3h15.568a.3.3 0 00.3-.3v-1.098a.3.3 0 00-.3-.3h-.08c-4.653-.06-5.273-1.348-5.273-9.437v-5.163c0-4.444 4.843-8.438 9.287-8.438 4.843 0 6.691 3.395 6.691 8.638v5.043c0 6.85 0 9.377-4.993 9.437a.31.31 0 00-.3.3v1.098a.3.3 0 00.3.3H183.7a.29.29 0 00.3-.279v-1.108a.29.29 0 00-.279-.3h-.031zm-41.211-.179c-3.146-.539-3.795-2.646-3.795-9.267v-16.816a.25.25 0 00-.25-.25l-9.556 1.668a.3.3 0 00-.27.3v1.528c-.006.16.12.294.279.299h.01c3.635.369 4.424 2.257 4.424 9.287v3.994c0 6.99-.789 8.987-4.424 9.357a.3.3 0 00-.29.3v1.188a.31.31 0 00.29.3h13.571a.29.29 0 00.29-.289v-1.288a.29.29 0 00-.269-.309c-.003-.002-.007-.002-.01-.002zm-16.766-.869a.289.289 0 00-.379-.15l-.35.16c-.288.16-.61.249-.939.26-1.208 0-1.857-1.128-1.857-3.146v-12.163c0-7.669-3.225-11.284-11.054-11.284-5.163 0-10.245 2.586-10.245 6.461a2.786 2.786 0 105.562.001c0-2.586 2.746-3.894 4.583-3.875 4.234 0 5.412 1.887 5.412 7.839a.17.17 0 01-.13.16c-9.137 1.618-17.056 5.412-17.056 12.223 0 4.284 3.305 6.78 7.26 6.78 3.166 0 5.992-1.248 9.866-4.643a.17.17 0 01.23 0 .28.28 0 010 .1c.489 2.736 2.397 4.384 5.442 4.384a7.12 7.12 0 004.124-1.468.288.288 0 00.09-.359l-.559-1.28zm-9.257-4.494a.17.17 0 01-.05.12c-3.685 3.275-5.612 3.994-7.3 3.994a3.814 3.814 0 01-3.784-4.114c0-3.525 3.415-6.86 10.984-8.638a.18.18 0 01.17.17l-.02 8.468zM97.443 99.568H86.648a.302.302 0 00-.28.19l-16.786 38.735a.18.18 0 01-.16.13.199.199 0 01-.16-.13L52.387 99.748a.292.292 0 00-.27-.18H39.695a.29.29 0 00-.3.279v1.138a.3.3 0 00.3.3h.06c5.642.19 6.501 1.767 6.501 9.347v26.243c0 7.579-1.208 9.367-6.541 9.427a.3.3 0 00-.3.3v1.098a.29.29 0 00.279.3h15.997a.29.29 0 00.3-.279v-1.138a.3.3 0 00-.3-.3h-.379c-5.173-.27-6.041-2.077-6.041-9.397v-27.91a.17.17 0 01.17-.16c.068 0 .13.039.16.1l17.515 38.945a.311.311 0 00.27.17h.649a.29.29 0 00.27-.18l16.387-36.588a.188.188 0 01.15-.09c.09 0 .164.07.17.16v25.514c0 7.439-.829 9.167-6.191 9.417a.3.3 0 00-.3.3v1.138a.3.3 0 00.3.3h18.673a.3.3 0 00.3-.3v-1.128a.3.3 0 00-.3-.3c-5.243-.27-6.051-2.087-6.051-9.397v-26.243c0-7.33.809-9.067 6.041-9.317a.31.31 0 00.3-.31v-1.138a.3.3 0 00-.3-.3h-.041zm14.46-23.053l-3.835-2.087c-3.505-1.907-4.873-2.946-4.873-4.843s1.358-3.435 4.074-3.435 5.992 1.558 6.451 4.943c0 .16.13.29.29.29h1.098c.16.006.294-.12.299-.279v-7.23a.289.289 0 00-.279-.299h-1.108a.29.29 0 00-.29.289v.1c-.09 3.495-1.388-.379-7.18-.379-4.164 0-8.148 2.946-8.148 7.26 0 2.556 1.438 5.912 5.352 7.989l4.394 2.387c2.786 1.438 4.464 2.886 4.464 4.873a4.234 4.234 0 01-4.385 4.078l-.079-.004c-5.352 0-8.518-4.094-8.748-6.611v-.469a.29.29 0 00-.29-.29h-.999a.289.289 0 00-.299.279v9.507a.29.29 0 00.279.3h1.019a.3.3 0 00.3-.29v-.14c.15-4.993 3.166.419 8.538.419 5.183 0 9.497-3.435 9.497-8.698-.03-2.867-2.027-5.663-5.542-7.66zm-23.447 0l-3.835-2.087c-3.505-1.907-4.873-2.946-4.873-4.843s1.358-3.435 4.074-3.435c2.716 0 5.992 1.558 6.461 4.943a.279.279 0 00.269.289h1.118c.16 0 .29-.13.29-.29v-7.22a.3.3 0 00-.29-.3h-1.088a.3.3 0 00-.3.3v.09c-.08 3.495-1.398-.379-7.18-.379-4.174 0-8.148 2.946-8.148 7.26 0 2.556 1.438 5.912 5.352 7.989l4.394 2.387c2.796 1.438 4.464 2.886 4.464 4.873a4.245 4.245 0 01-4.405 4.077l-.059-.003c-5.352 0-8.518-4.094-8.748-6.611v-.469a.29.29 0 00-.289-.29h-1.009a.3.3 0 00-.3.29v9.497a.31.31 0 00.31.3h.999a.29.29 0 00.3-.279v-.15c.16-4.993 3.175.419 8.538.419 5.193 0 9.497-3.435 9.497-8.698-.04-2.867-2.047-5.663-5.542-7.66zM54.534 63.583c-8.857 0-16.127 6.541-16.127 14.609s7.27 14.689 16.127 14.689 16.127-6.641 16.127-14.689-7.26-14.609-16.127-14.609zm0 26.173c-6.551 0-9.646-5.183-9.646-11.574s3.116-11.574 9.656-11.574 9.666 5.173 9.666 11.584-3.045 11.564-9.676 11.564zM41.363 45.639a.31.31 0 00.3-.3v-1.098a.3.3 0 00-.3-.3h-21.19a.29.29 0 00-.3.279v1.128a.28.28 0 00.269.29h.619c5.892.06 6.77.839 6.77 8.508v33.952c0 7.749-2.147 13.321-7.669 13.321-4.194 0-6.291-2.816-6.291-5.243a2.716 2.716 0 00-2.696-2.736 2.737 2.737 0 00-2.873 2.592L8 96.137v.08c0 4.993 7.11 7.669 11.863 7.669 6.99 0 14.12-5.093 14.12-16.626V54.147c0-7.819.909-8.478 7.06-8.508h.32zm125.532 7.639c-2.407 0-4.803 1.668-4.803 3.994a2.805 2.805 0 002.609 2.99l.108.005a2.378 2.378 0 002.407-1.598c.479-1.049.24-3.126 1.768-3.126.949 0 1.518 1.358 1.518 2.806 0 2.556-2.407 4.803-5.532 6.161a151.682 151.682 0 00-16.097 8.099c-3.285 2.077-5.302 4.583-5.302 9.986 0 .439 0 .879.07 1.308v.18c0 .17.17.23.33.2l.719-.15a.24.24 0 00.21-.22 7.556 7.556 0 013.156-5.412 53.7 53.7 0 019.596-5.412h.06a.159.159 0 01.14.08 13.085 13.085 0 011.937 7.3c0 7.13-5.872 12.522-14.44 12.522-7.689 0-13.541-4.993-13.541-13.441 0-7.589 5.063-13.061 10.984-13.151l3.215-.06c1.787 0 1.997-.999 1.927-1.478 0-.669-.649-1.358-2.187-1.348-.619 0-4.753.529-6.8-4.424a10.865 10.865 0 01-.759-4.214 8.248 8.248 0 018.085-8.408h.103a9.1 9.1 0 011.278.09c1.757.27 3.725 1.458 4.993 5.832.589 1.378 2.237.929 2.796.669.9-.474 1.3-1.549.929-2.496a6.929 6.929 0 00-1.997-2.996 12.515 12.515 0 00-3.205-2.417 12.703 12.703 0 00-6.581-1.797c-5.532 0-11.384 3.285-11.384 10.335 0 5.932 3.924 8.418 5.832 9.616 0 0 .07 0 .07.09a.079.079 0 01-.07.07c-4.723.419-13.541 5.532-13.541 16.107 0 10.895 9.137 17.076 18.743 17.076 9.377 0 17.865-6.251 17.865-16.107a18.162 18.162 0 00-2.317-8.358.159.159 0 01.08-.14c4.434-2.297 12.372-4.913 12.372-12.522.018-4.094-2.469-6.241-5.344-6.241z"/></svg>