<svg width="256" height="256" xmlns="http://www.w3.org/2000/svg"><path d="M10.666 128V10.666h234.668v234.668H10.666z" fill="#fdfdfd"/><path d="M10.666 128V10.666h234.668v234.668H10.666zm197.072 89.937c2.443-.576 4.29-1.628 6.21-3.54 1.913-1.904 2.943-3.634 3.545-5.96.482-1.859.482-4.934 0-6.741-.865-3.247-.518-2.855-18.838-21.222l-17.034-17.079 1.74-2.515c11.731-16.957 16.446-37.03 13.483-57.4-3.375-23.202-17.453-44.241-37.792-56.478-9.732-5.855-19.675-9.257-31.969-10.94-2.941-.402-15.392-.402-18.333 0-10.276 1.407-18.851 4.004-27.042 8.193-30.617 15.658-47.677 48.737-42.719 82.828 3.375 23.201 17.454 44.24 37.792 56.477 8.359 5.03 17.706 8.534 27.156 10.182 5.414.945 6.886 1.056 13.98 1.056s8.565-.111 13.979-1.056c10.064-1.755 20.096-5.645 28.705-11.13.852-.543 1.62-.987 1.705-.987.086 0 7.897 7.716 17.357 17.147 15.806 15.754 17.335 17.214 18.84 17.989 2.884 1.485 6.155 1.902 9.235 1.176zm-5.717-.217c-.82-.185-2.26-.716-3.203-1.18-1.628-.803-2.571-1.695-18.961-17.937-9.487-9.401-17.25-17.214-17.25-17.363-.001-.15.9-.922 2.002-1.718 4.872-3.515 10.128-8.41 14.105-13.137 1.272-1.512 2.39-2.75 2.482-2.75.092 0 7.729 7.542 16.97 16.758 11.578 11.547 17.035 17.146 17.55 18.006 1.719 2.867 2.326 6.578 1.569 9.58-1.115 4.42-4.345 7.963-8.546 9.374-1.9.637-4.813.797-6.718.367zm-90.636-50.34c-15.16-1.71-29.067-10.317-37.524-23.224-10.014-15.284-11.165-34.797-3.019-51.204 7.649-15.406 21.79-25.673 39.054-28.355 3.628-.563 11.224-.56 14.887.006 21.204 3.278 37.919 18.508 42.946 39.133 1.035 4.242 1.38 7.278 1.38 12.118-.002 5.12-.385 8.25-1.595 13.006-5.29 20.806-23.253 36.252-44.833 38.549-2.625.279-8.696.263-11.296-.03z" fill="#fb9c02"/><path d="M10.666 128V10.666h234.668v234.668H10.666zm197.072 89.937c2.443-.576 4.29-1.628 6.21-3.54 1.913-1.904 2.943-3.634 3.545-5.96.482-1.859.482-4.934 0-6.741-.865-3.247-.518-2.855-18.838-21.222l-17.034-17.079 1.74-2.515c11.731-16.957 16.446-37.03 13.483-57.4-3.375-23.202-17.453-44.241-37.792-56.478-9.732-5.855-19.675-9.257-31.969-10.94-2.941-.402-15.392-.402-18.333 0-10.276 1.407-18.851 4.004-27.042 8.193-30.617 15.658-47.677 48.737-42.719 82.828 3.375 23.201 17.454 44.24 37.792 56.477 8.359 5.03 17.706 8.534 27.156 10.182 5.414.945 6.886 1.056 13.98 1.056s8.565-.111 13.979-1.056c10.064-1.755 20.096-5.645 28.705-11.13.852-.543 1.62-.987 1.705-.987.086 0 7.897 7.716 17.357 17.147 15.806 15.754 17.335 17.214 18.84 17.989 2.884 1.485 6.155 1.902 9.235 1.176zm-96.353-50.558c-15.16-1.71-29.067-10.316-37.524-23.223-10.014-15.284-11.165-34.797-3.019-51.204 7.649-15.406 21.79-25.673 39.054-28.355 3.628-.563 11.224-.56 14.887.006 21.204 3.278 37.919 18.508 42.946 39.133 1.035 4.242 1.38 7.278 1.38 12.118-.002 5.12-.385 8.25-1.595 13.006-5.29 20.806-23.253 36.252-44.833 38.549-2.625.279-8.696.263-11.296-.03z" fill="#0e66fa"/></svg>