<svg width="48" height="48" viewBox="0 0 192 192" xmlns="http://www.w3.org/2000/svg"><path d="M122.741 82.649c-1.949 5.457-4.678 10.525-10.33 14.228-3.703 2.534-7.991 3.898-12.669 4.093-6.042.195-12.084 0-18.516 0V13.652c8.381 0 15.398 0 22.999.975 7.017.975 11.499 5.068 14.618 9.94 4.483 6.822 6.237 14.423 6.822 21.829 1.169 12.28 1.169 24.364-2.924 36.253m39.371-41.32c-3.508-11.694-11.305-20.855-24.168-27.092C128.783 9.754 118.843 8 108.513 8H27.237v5.652c1.754 0 3.508.195 5.262.195 3.118.195 6.627.195 9.355 1.949 1.364.78 2.729 2.144 3.118 3.703.195.78.39 3.118.39 4.873v144.035c0 1.754-.195 3.703-.39 4.288-.585 1.559-1.754 2.924-3.118 3.703-2.924 1.754-6.237 1.754-9.355 1.949-1.754 0-3.508.195-5.262.195V184h76.988v-5.457c-1.754 0-8.186-.195-9.94-.39-3.118-.195-6.627-.195-9.355-1.949-1.364-.78-2.729-2.144-3.118-3.703-.195-.585-.39-2.144-.39-3.898v-62.37c1.559 0 26.507 0 37.617-.975 17.152-1.754 30.21-9.161 38.396-21.829 8.185-13.254 9.16-27.482 4.677-42.1" fill="#221924"/></svg>