<svg width="48" height="48" viewBox="0 0 192 192" xmlns="http://www.w3.org/2000/svg"><path d="M96 38.926L153.074 96 96 153.074 38.926 96 96 38.926z" fill="#752a7d"/><path d="M22.269 22.269L65.074 8 96 38.926 38.926 96 8 65.074l14.269-42.805z" fill="#c6d637"/><path d="M169.731 22.269L184 65.074 153.074 96 96 38.926 126.926 8l42.805 14.269z" fill="#88cc79"/><path d="M169.731 169.731L126.926 184 96 153.074 153.074 96 184 126.926l-14.269 42.805z" fill="#d47eed"/><path d="M22.269 169.731L8 126.926 38.926 96 96 153.074 65.074 184l-42.805-14.269z" fill="#f7cf1f"/></svg>